%TF.GenerationSoftware,KiCad,Pcbnew,6.0.9-1.fc36*%
%TF.CreationDate,2022-11-19T00:25:19+01:00*%
%TF.ProjectId,solar,736f6c61-722e-46b6-9963-61645f706362,rev?*%
%TF.SameCoordinates,Original*%
%TF.FileFunction,Legend,Top*%
%TF.FilePolarity,Positive*%
%FSLAX46Y46*%
G04 Gerber Fmt 4.6, Leading zero omitted, Abs format (unit mm)*
G04 Created by KiCad (PCBNEW 6.0.9-1.fc36) date 2022-11-19 00:25:19*
%MOMM*%
%LPD*%
G01*
G04 APERTURE LIST*
%ADD10C,0.150000*%
%ADD11C,0.300000*%
%ADD12C,0.120000*%
G04 APERTURE END LIST*
D10*
X182808571Y-110577142D02*
X182856190Y-110434285D01*
X182903809Y-110386666D01*
X182999047Y-110339047D01*
X183141904Y-110339047D01*
X183237142Y-110386666D01*
X183284761Y-110434285D01*
X183332380Y-110529523D01*
X183332380Y-110910476D01*
X182332380Y-110910476D01*
X182332380Y-110577142D01*
X182380000Y-110481904D01*
X182427619Y-110434285D01*
X182522857Y-110386666D01*
X182618095Y-110386666D01*
X182713333Y-110434285D01*
X182760952Y-110481904D01*
X182808571Y-110577142D01*
X182808571Y-110910476D01*
X183046666Y-109958095D02*
X183046666Y-109481904D01*
X183332380Y-110053333D02*
X182332380Y-109720000D01*
X183332380Y-109386666D01*
X182332380Y-109196190D02*
X182332380Y-108624761D01*
X183332380Y-108910476D02*
X182332380Y-108910476D01*
X182951428Y-108291428D02*
X182951428Y-107529523D01*
X183332380Y-107910476D02*
X182570476Y-107910476D01*
X179522380Y-105020952D02*
X178522380Y-105020952D01*
X178522380Y-104782857D01*
X178570000Y-104640000D01*
X178665238Y-104544761D01*
X178760476Y-104497142D01*
X178950952Y-104449523D01*
X179093809Y-104449523D01*
X179284285Y-104497142D01*
X179379523Y-104544761D01*
X179474761Y-104640000D01*
X179522380Y-104782857D01*
X179522380Y-105020952D01*
X179141428Y-104020952D02*
X179141428Y-103259047D01*
X165385714Y-105088571D02*
X165385714Y-106088571D01*
X165028571Y-104517142D02*
X164671428Y-105588571D01*
X165600000Y-105588571D01*
X178228571Y-106088571D02*
X177371428Y-106088571D01*
X177800000Y-106088571D02*
X177800000Y-104588571D01*
X177657142Y-104802857D01*
X177514285Y-104945714D01*
X177371428Y-105017142D01*
X165504761Y-111053333D02*
X165552380Y-110910476D01*
X165552380Y-110672380D01*
X165504761Y-110577142D01*
X165457142Y-110529523D01*
X165361904Y-110481904D01*
X165266666Y-110481904D01*
X165171428Y-110529523D01*
X165123809Y-110577142D01*
X165076190Y-110672380D01*
X165028571Y-110862857D01*
X164980952Y-110958095D01*
X164933333Y-111005714D01*
X164838095Y-111053333D01*
X164742857Y-111053333D01*
X164647619Y-111005714D01*
X164600000Y-110958095D01*
X164552380Y-110862857D01*
X164552380Y-110624761D01*
X164600000Y-110481904D01*
X164552380Y-109862857D02*
X164552380Y-109672380D01*
X164600000Y-109577142D01*
X164695238Y-109481904D01*
X164885714Y-109434285D01*
X165219047Y-109434285D01*
X165409523Y-109481904D01*
X165504761Y-109577142D01*
X165552380Y-109672380D01*
X165552380Y-109862857D01*
X165504761Y-109958095D01*
X165409523Y-110053333D01*
X165219047Y-110100952D01*
X164885714Y-110100952D01*
X164695238Y-110053333D01*
X164600000Y-109958095D01*
X164552380Y-109862857D01*
X165552380Y-108529523D02*
X165552380Y-109005714D01*
X164552380Y-109005714D01*
X165171428Y-108196190D02*
X165171428Y-107434285D01*
X165552380Y-107815238D02*
X164790476Y-107815238D01*
D11*
X173291571Y-110597142D02*
X174434428Y-110597142D01*
D10*
X179522380Y-102480952D02*
X178522380Y-102480952D01*
X178522380Y-102242857D01*
X178570000Y-102100000D01*
X178665238Y-102004761D01*
X178760476Y-101957142D01*
X178950952Y-101909523D01*
X179093809Y-101909523D01*
X179284285Y-101957142D01*
X179379523Y-102004761D01*
X179474761Y-102100000D01*
X179522380Y-102242857D01*
X179522380Y-102480952D01*
X179141428Y-101480952D02*
X179141428Y-100719047D01*
X179522380Y-101100000D02*
X178760476Y-101100000D01*
%TO.C,L1*%
X171283333Y-102052380D02*
X170807142Y-102052380D01*
X170807142Y-101052380D01*
X172140476Y-102052380D02*
X171569047Y-102052380D01*
X171854761Y-102052380D02*
X171854761Y-101052380D01*
X171759523Y-101195238D01*
X171664285Y-101290476D01*
X171569047Y-101338095D01*
D12*
%TO.C,SC1*%
X168910000Y-107890000D02*
X171510000Y-107890000D01*
X168910000Y-110550000D02*
X168910000Y-107890000D01*
X166310000Y-110550000D02*
X166310000Y-109220000D01*
X167640000Y-110550000D02*
X166310000Y-110550000D01*
X168910000Y-110550000D02*
X171510000Y-110550000D01*
X171510000Y-110550000D02*
X171510000Y-107890000D01*
%TO.C,L1*%
X168180000Y-100230000D02*
X168180000Y-102970000D01*
X168180000Y-102970000D02*
X174720000Y-102970000D01*
X167410000Y-101600000D02*
X168180000Y-101600000D01*
X174720000Y-102970000D02*
X174720000Y-100230000D01*
X174720000Y-100230000D02*
X168180000Y-100230000D01*
X175490000Y-101600000D02*
X174720000Y-101600000D01*
%TO.C,D1*%
X182940000Y-102870000D02*
X180280000Y-102870000D01*
X182940000Y-104140000D02*
X182940000Y-105470000D01*
X182940000Y-105470000D02*
X181610000Y-105470000D01*
X182940000Y-102870000D02*
X182940000Y-100270000D01*
X180280000Y-102870000D02*
X180280000Y-100270000D01*
X182940000Y-100270000D02*
X180280000Y-100270000D01*
%TO.C,1*%
X176590000Y-105410000D02*
X176590000Y-106740000D01*
X173990000Y-106740000D02*
X166310000Y-106740000D01*
X176590000Y-106740000D02*
X175260000Y-106740000D01*
X173990000Y-104080000D02*
X173990000Y-106740000D01*
X173990000Y-104080000D02*
X166310000Y-104080000D01*
X166310000Y-104080000D02*
X166310000Y-106740000D01*
%TO.C,BT1*%
X181670000Y-107890000D02*
X181670000Y-109220000D01*
X176470000Y-107890000D02*
X176470000Y-110550000D01*
X180340000Y-107890000D02*
X181670000Y-107890000D01*
X179070000Y-110550000D02*
X176470000Y-110550000D01*
X179070000Y-107890000D02*
X179070000Y-110550000D01*
X179070000Y-107890000D02*
X176470000Y-107890000D01*
%TD*%
M02*
